:FULLY-SPECIFIED
:FORCE-ALL-JOINTS-BE-3DOF
:DEGREES
849
root 3.74912 16.3838 27.9977 -8.4993 6.32417 -2.23336
lfemur -22.6409 2.22563 -14.119
ltibia 34.4497 -0 0
lfoot -3.95652 -14.6624 0.0428783
ltoes 7.79204 -0 0
rfemur -27.9813 -4.50361 5.38465
rtibia 68.4538 -0 0
rfoot 18.4328 9.38664 0.518281
rtoes -15.4915 0 0
lowerback 4.10747 2.70518 -0.738694
upperback 1.10865 3.58397 0.303528
thorax -1.05238 1.79879 0.897649
lowerneck -6.30052 -3.3974 2.8191
upperneck 8.52617 -5.02446 1.90648
head 3.87989 -2.30112 -0.129454
lclavicle 2.03879e-14 -1.90833e-14 0
lhumerus -48.5774 -10.9117 84.5444
lradius 54.197 -0 0
lwrist 19.3549 0 0
lhand -0.322234 4.45508 -0.00443755
lfingers 7.12502 -0 0
lthumb 25.2694 32.678 -0.045863
rclavicle 2.03879e-14 -1.90833e-14 0
rhumerus -39.0615 14.738 -69.2803
rradius 54.1729 -0 0
rwrist 4.6162 0 0
rhand -24.7553 -26.9216 -0.164897
rfingers 7.12502 -0 0
rthumb 1.74531 -56.7152 -0.146911
850
root 3.76787 16.3995 28.0913 -9.00855 7.21161 -2.09741
lfemur -21.8673 2.47918 -14.5376
ltibia 34.4343 -0 0
lfoot -4.00753 -15.5905 0.0445314
ltoes 8.98936 -0 0
rfemur -30.3853 -4.21981 5.41259
rtibia 67.8396 -0 0
rfoot 17.6686 8.63734 0.538277
rtoes -14.4896 0 0
lowerback 4.77379 2.36997 -0.996326
upperback 1.34156 3.12021 0.211332
thorax -1.17529 1.56777 0.95918
lowerneck -6.30907 -3.39457 2.7854
upperneck 8.49626 -5.0258 2.0023
head 3.87492 -2.29899 -0.0919366
lclavicle 2.03879e-14 -1.90833e-14 0
lhumerus -47.6954 -11.7464 84.3372
lradius 54.2868 -0 0
lwrist 19.6208 0 0
lhand 0.248411 4.4465 -0.00460838
lfingers 7.12502 -0 0
lthumb 25.8154 32.5854 -0.0476284
rclavicle 2.03879e-14 -1.90833e-14 0
rhumerus -39.7612 13.5431 -68.1406
rradius 54.0036 -0 0
rwrist 4.34134 0 0
rhand -23.8744 -27.1282 -0.171253
rfingers 7.12502 -0 0
rthumb 2.59572 -56.9059 -0.152573
851
root 3.78663 16.4153 28.1848 -9.51673 8.10021 -1.96914
lfemur -21.0955 2.73835 -14.9529
ltibia 34.4188 -0 0
lfoot -4.05856 -16.5186 0.045358
ltoes 10.1867 -0 0
rfemur -32.7883 -3.93509 5.42857
rtibia 67.2254 -0 0
rfoot 16.9042 7.88783 0.548277
rtoes -13.4878 0 0
lowerback 5.44145 2.03777 -1.25778
upperback 1.57512 2.65684 0.117287
thorax -1.29843 1.33688 1.0212
lowerneck -6.31763 -3.39174 2.7517
upperneck 8.46635 -5.02709 2.09813
head 3.86996 -2.29686 -0.0544196
lclavicle 2.03879e-14 -1.90833e-14 0
lhumerus -46.8077 -12.5779 84.1162
lradius 54.3765 -0 0
lwrist 19.8867 0 0
lhand 0.819057 4.43793 -0.00469379
lfingers 7.12502 -0 0
lthumb 26.3614 32.4928 -0.0485112
rclavicle 2.03879e-14 -1.90833e-14 0
rhumerus -40.4817 12.3621 -66.9915
rradius 53.8343 -0 0
rwrist 4.06647 0 0
rhand -22.9934 -27.3349 -0.174432
rfingers 7.12502 -0 0
rthumb 3.44614 -57.0966 -0.155404
852
root 3.80538 16.431 28.2784 -10.0241 8.9899 -1.84856
lfemur -20.3253 3.00308 -15.3647
ltibia 34.4034 -0 0
lfoot -4.10959 -17.4467 0.045358
ltoes 11.384 -0 0
rfemur -35.1904 -3.64996 5.43256
rtibia 66.6113 -0 0
rfoot 16.1397 7.13826 0.548277
rtoes -12.4859 0 0
lowerback 6.1105 1.70865 -1.52305
upperback 1.80936 2.19385 0.0213854
thorax -1.42182 1.10612 1.08371
lowerneck -6.32618 -3.38892 2.718
upperneck 8.43643 -5.02833 2.19395
head 3.865 -2.29473 -0.0169029
lclavicle 2.03879e-14 -1.90833e-14 0
lhumerus -45.9136 -13.406 83.8813
lradius 54.4663 -0 0
lwrist 20.1526 0 0
lhand 1.3897 4.42935 -0.00469379
lfingers 7.12502 -0 0
lthumb 26.9074 32.4001 -0.0485112
rclavicle 2.03879e-14 -1.90833e-14 0
rhumerus -41.2232 11.1954 -65.8322
rradius 53.665 -0 0
rwrist 3.7916 0 0
rhand -22.1125 -27.5417 -0.174432
rfingers 7.12502 -0 0
rthumb 4.29656 -57.2874 -0.155404
853
root 3.82414 16.4468 28.3719 -10.5308 9.88061 -1.73567
lfemur -19.5569 3.27331 -15.773
ltibia 34.3879 -0 0
lfoot -4.16062 -18.3747 0.0445314
ltoes 12.5813 -0 0
rfemur -37.5918 -3.3649 5.42458
rtibia 65.9971 -0 0
rfoot 15.3753 6.38876 0.538277
rtoes -11.484 0 0
lowerback 6.78096 1.38264 -1.7921
upperback 2.04431 1.73126 -0.076383
thorax -1.54544 0.875497 1.14671
lowerneck -6.33474 -3.3861 2.68429
upperneck 8.40651 -5.02952 2.28978
head 3.86003 -2.2926 0.0206136
lclavicle 2.03879e-14 -1.90833e-14 0
lhumerus -45.0129 -14.2304 83.6322
lradius 54.556 -0 0
lwrist 20.4185 0 0
lhand 1.96035 4.42078 -0.00460838
lfingers 7.12502 -0 0
lthumb 27.4534 32.3075 -0.0476284
rclavicle 2.03879e-14 -1.90833e-14 0
rhumerus -41.9857 10.0437 -64.6621
rradius 53.4957 -0 0
rwrist 3.51673 0 0
rhand -21.2315 -27.7484 -0.171253
rfingers 7.12502 -0 0
rthumb 5.14698 -57.4781 -0.152573
